<?xml version="1.0" encoding="UTF-8" standalone="no"?>
<!DOCTYPE svg PUBLIC "-//W3C//DTD SVG 1.1//EN" "http://www.w3.org/Graphics/SVG/1.1/DTD/svg11.dtd">
<svg width="100%" height="100%" viewBox="0 0 512 512" version="1.1" xmlns="http://www.w3.org/2000/svg" xmlns:xlink="http://www.w3.org/1999/xlink" xml:space="preserve" xmlns:serif="http://www.serif.com/" style="fill-rule:evenodd;clip-rule:evenodd;stroke-linejoin:round;stroke-miterlimit:2;">
    <g id="レイヤー-5" serif:id="レイヤー 5">
        <path id="path4542" d="M125.972,500.997C122.6,507.74 115.708,512 108.169,512C85.271,512 36.32,512 12.944,512C10.172,512 7.597,510.564 6.139,508.206C4.681,505.847 4.549,502.902 5.789,500.422C32.536,446.929 144.098,223.803 173.55,164.899C174.906,162.189 177.676,160.477 180.706,160.477C183.736,160.477 186.506,162.189 187.861,164.899C217.313,223.803 328.876,446.929 355.623,500.422C356.863,502.902 356.73,505.847 355.273,508.206C353.815,510.564 351.24,512 348.468,512C325.092,512 276.141,512 253.243,512C245.704,512 238.811,507.74 235.44,500.997C224.508,479.134 200.061,430.239 187.884,405.885C186.524,403.166 183.745,401.449 180.706,401.449C177.666,401.449 174.888,403.166 173.528,405.885C161.351,430.239 136.904,479.134 125.972,500.997Z" style="fill:url(#_Linear1);fill-rule:nonzero;"/>
        <path id="path4544" d="M263.155,14.311C261.8,11.601 259.03,9.889 256,9.889C252.97,9.889 250.2,11.601 248.845,14.311C236.998,38.005 213.494,85.013 202.165,107.671C198.136,115.728 198.136,125.213 202.165,133.27C213.494,155.928 236.998,202.936 248.845,226.63C250.2,229.341 252.97,231.053 256,231.053C259.03,231.053 261.8,229.341 263.155,226.63C275.002,202.936 298.506,155.928 309.835,133.27C313.864,125.213 313.864,115.728 309.835,107.671C298.506,85.013 275.002,38.005 263.155,14.311Z" style="fill:url(#_Linear2);fill-rule:nonzero;"/>
        <path id="path4546" d="M506.211,500.422C507.451,502.902 507.319,505.847 505.861,508.206C504.403,510.564 501.828,512 499.056,512C476.392,512 429.685,512 405.993,512C397.129,512 389.025,506.992 385.061,499.064C364.356,457.653 299.8,328.542 278.189,285.32C273.701,276.342 273.701,265.775 278.189,256.798C289.771,233.634 312.541,188.095 324.139,164.899C325.494,162.189 328.264,160.477 331.294,160.477C334.324,160.477 337.094,162.189 338.45,164.899C367.902,223.803 479.465,446.929 506.211,500.422Z" style="fill:url(#_Linear3);fill-rule:nonzero;"/>
    </g>
    <defs>
        <linearGradient id="_Linear1" x1="0" y1="0" x2="1" y2="0" gradientUnits="userSpaceOnUse" gradientTransform="matrix(361.412,0,0,361.412,1.88976e-05,331.294)"><stop offset="0" style="stop-color:rgb(71,116,158);stop-opacity:1"/><stop offset="1" style="stop-color:rgb(192,139,174);stop-opacity:1"/></linearGradient>
        <linearGradient id="_Linear2" x1="0" y1="0" x2="1" y2="0" gradientUnits="userSpaceOnUse" gradientTransform="matrix(316.235,0,0,512,195.765,256)"><stop offset="0" style="stop-color:rgb(71,116,158);stop-opacity:1"/><stop offset="1" style="stop-color:rgb(202,217,201);stop-opacity:1"/></linearGradient>
        <linearGradient id="_Linear3" x1="0" y1="0" x2="1" y2="0" gradientUnits="userSpaceOnUse" gradientTransform="matrix(316.235,0,0,512,195.765,256)"><stop offset="0" style="stop-color:rgb(71,116,158);stop-opacity:1"/><stop offset="1" style="stop-color:rgb(202,217,201);stop-opacity:1"/></linearGradient>
    </defs>
</svg>
